<svg xmlns="http://www.w3.org/2000/svg" width="51.16" height="44.02" viewBox="0 0 51.16 44.02">
  <g>
    <path d="M49.63,35.56,29.86,3.22a5,5,0,0,0-8.56,0L1.53,35.56a5,5,0,0,0,4.28,7.63H45.35A5,5,0,0,0,49.63,35.56ZM25.7,37.14h-.14a3.52,3.52,0,1,1,3.36-3.67v.17A3.36,3.36,0,0,1,25.7,37.14Zm3.22-20.47-.61,8.87A2.38,2.38,0,0,1,26,27.79h-.74a2.38,2.38,0,0,1-2.36-2.25l-.6-8.84-.12-3.06a2.28,2.28,0,0,1,2.33-2.44h2.17a2.32,2.32,0,0,1,1.71.71A2.42,2.42,0,0,1,29,13.64Z" style="fill: #ff3060"/>
    <path d="M25.42,30.2a3.52,3.52,0,0,0,.32,7h.13a3.36,3.36,0,0,0,3.23-3.5v-.17A3.54,3.54,0,0,0,25.42,30.2Z" style="fill: #fff"/>
    <path d="M26.65,11.3H24.48a2.32,2.32,0,0,0-1.71.71,2.41,2.41,0,0,0-.63,1.73l.13,3.06.6,8.84a2.38,2.38,0,0,0,2.36,2.25H26a2.37,2.37,0,0,0,2.35-2.25l.62-8.87.08-3A2.42,2.42,0,0,0,28.36,12,2.33,2.33,0,0,0,26.65,11.3Z" style="fill: #fff"/>
  </g>
</svg>
