<svg xmlns="http://www.w3.org/2000/svg" width="763.8" height="53.27" viewBox="0 0 763.8 53.27">
  <g>
    <path d="M92,53.24C76.27,53.24,65,41.54,65,27.1v-.17C65,12.47,76.42.62,92.12.62s26.95,11.71,26.95,26.18v.13C119.07,41.41,107.65,53.24,92,53.24Zm15.42-26.31c0-8.73-6.38-16-15.42-16S76.7,18.06,76.7,26.8v.13c0,8.73,6.41,16,15.42,16s15.25-7.13,15.25-15.83Z" style="fill: #0d2840"/>
    <path d="M157.53,52.1h-9.88L127.06,1.21h12.35l13.31,35.5L166,1.21h12.06Z" style="fill: #0d2840"/>
    <path d="M580.94,52.1V1.23h11.22V52.1Z" style="fill: #0d2840"/>
    <path d="M644.38,34c6.47-2.43,11-7.59,11-15.81V18c0-10.47-7.2-16.79-19.19-16.79H607l5.86,8.63V52.09h11.2V35.8h8L644,52.09h13.5Zm-20.29-8V11.3H635.2c5.47,0,8.81,2.47,8.81,7.27v.14c0,4.29-3.12,7.2-8.57,7.2Z" style="fill: #0d2840"/>
    <path d="M471.31,34c6.47-2.43,11-7.59,11-15.81V18c0-10.47-7.19-16.79-19.18-16.79H434l5.86,8.63V52.09H451V35.8h8.05L471,52.09h13.5ZM451,26V11.3h11.12c5.45,0,8.8,2.47,8.8,7.27v.14c0,4.29-3.12,7.2-8.58,7.2Z" style="fill: #0d2840"/>
    <polygon points="566.21 11.22 566.21 1.19 527.46 1.19 527.46 52.11 538.65 52.11 538.65 32.25 562.94 32.25 562.94 22.07 538.65 22.07 538.65 11.22 566.21 11.22" style="fill: #0d2840"/>
    <polygon points="392.84 42.3 392.84 31.61 416.85 31.61 416.85 21.66 392.84 21.66 392.84 11.3 420.11 11.32 420.11 1.22 381.74 1.22 381.74 52.1 420.14 52.1 420.14 42.3 392.84 42.3" style="fill: #0d2840"/>
    <polygon points="202.72 42.3 202.72 31.61 226.73 31.61 226.73 21.66 202.72 21.66 202.72 11.3 229.99 11.32 229.99 1.22 191.62 1.22 191.62 52.1 230.02 52.1 230.02 42.3 202.72 42.3" style="fill: #0d2840"/>
    <path d="M355.18,25.48c3.63-2,6.69-5.24,6.69-11v-.12c0-8-6.39-13.17-16.79-13.17H321.44v50.9h24.22c11.48,0,19-4.65,19-14v-.15C364.71,31.13,361.08,27.73,355.18,25.48ZM343.4,11c4.72,0,7.33,1.89,7.33,5.24v.14c0,3.78-3.12,5.38-8.06,5.38H332.35V11Zm10.18,25.73c0,3.78-3,5.53-7.92,5.53H332.35V31.07h12.94c5.74,0,8.29,2.11,8.29,5.54Z" style="fill: #0d2840"/>
    <polygon points="38.65 1.2 38.65 32.54 14.82 1.2 0 1.2 4.49 7.86 4.49 52.1 15.53 52.1 15.53 19.75 40.17 52.1 49.71 52.1 49.71 1.2 38.65 1.2" style="fill: #0d2840"/>
    <path d="M746.87,11.36V52.1H735.7V11.36H718.8V1.21h45V11.36Z" style="fill: #0d2840"/>
    <path d="M690.24,53.27a33,33,0,0,1-22-8.28l5.87-7c5,2.91,10.41,5.21,16.34,5.21,4.64,0,7.46-1.85,7.46-4.87v-.15c0-2.89-1.78-4.37-10.44-6.59-10.42-2.66-17.15-5.54-17.15-15.84v-.14c0-9.39,7.55-15.6,18.12-15.6A30,30,0,0,1,707.7,6.56L702.52,14a27.8,27.8,0,0,0-14.19-3.9c-4.37,0-6.67,2-6.67,4.5v.14c0,3.41,2.22,4.53,11.18,6.83,10.51,2.72,16.42,6.49,16.42,15.52v.16C709.26,47.56,701.41,53.27,690.24,53.27Z" style="fill: #0d2840"/>
    <polygon points="304.52 1.21 288.63 1.21 275.26 22.71 261.89 1.21 246.06 1.21 249.84 6.76 249.84 52.08 260.81 52.08 260.81 19.09 274.98 40.6 275.26 40.6 289.58 18.86 289.58 52.08 300.72 52.08 300.72 6.79 304.52 1.21" style="fill: #0d2840"/>
  </g>
</svg>
