<svg xmlns="http://www.w3.org/2000/svg" width="113.15" height="108.7" viewBox="0 0 113.15 108.7">
  <g>
    <g>
      <path d="M0,45.13A45.14,45.14,0,0,0,45.13,90.27V0A45.14,45.14,0,0,0,0,45.13Z" style="fill: #2cd7b3"/>
      <path d="M90.27,45.13A45.14,45.14,0,0,0,45.13,0V90.27A45.14,45.14,0,0,0,90.27,45.13Z" style="fill: #c7d5d8"/>
      <path d="M69.41,27.69a4.16,4.16,0,0,0-5.87.48L40.24,55.62,26.48,42a4.16,4.16,0,0,0-5.87,5.9l17,16.85.13.11.11.12.24.16a2.83,2.83,0,0,0,.28.2c.13.08.27.15.41.22a2.36,2.36,0,0,0,.28.12,2.88,2.88,0,0,0,.5.15,2,2,0,0,0,.23.06,3.84,3.84,0,0,0,.76.08h0a3.72,3.72,0,0,0,.74-.08h.08a4.87,4.87,0,0,0,.68-.2l.11,0a5.62,5.62,0,0,0,.64-.34l.09-.06a3.79,3.79,0,0,0,.58-.48l0,0,0,0,.18-.19,26.22-30.9A4.14,4.14,0,0,0,69.41,27.69Z" style="fill: #fff"/>
    </g>
    <path d="M69.89,27.69a4.16,4.16,0,0,0-5.87.48L40.71,55.62,27,42a4.16,4.16,0,1,0-5.87,5.9L38,64.7l.13.11.11.12a2,2,0,0,0,.24.16l.27.2.42.22.27.12a3.51,3.51,0,0,0,.5.15l.24.06a3.82,3.82,0,0,0,.75.08h0a3.63,3.63,0,0,0,.73-.08h.09a5.31,5.31,0,0,0,.68-.2l.11,0a4.77,4.77,0,0,0,.63-.34l.1-.06a5.09,5.09,0,0,0,.58-.48l0,0a.1.1,0,0,1,0,0l.18-.19,26.22-30.9A4.15,4.15,0,0,0,69.89,27.69Z" style="fill: #fff"/>
    <g>
      <path d="M110.43,89.75a.17.17,0,0,1,0-.07,15.22,15.22,0,0,0-.19-1.53.28.28,0,0,0,0-.09h0l-.06-.28c-.06-.36-.14-.71-.23-1.06,0-.18-.1-.35-.15-.53s-.14-.5-.23-.75a5.71,5.71,0,0,0-.21-.58c-.08-.22-.17-.44-.26-.66s-.17-.39-.26-.58l-.09-.22c0-.1-.11-.2-.17-.3-.13-.27-.27-.53-.42-.79,0-.06-.07-.14-.11-.2l-.26-.4c-.09-.15-.18-.29-.28-.43s-.4-.57-.62-.84-.18-.23-.28-.34a8.8,8.8,0,0,0-.64-.73l-.34-.35-.32-.33-.18-.15c-.23-.21-.47-.41-.71-.6l-.24-.21L104,77.6c-.15-.11-.29-.22-.45-.32s-.38-.26-.58-.39l-.45-.28-.83-.44-.59-.26c-.18-.08-.36-.17-.55-.24l-.11,0a14.11,14.11,0,0,0-1.56-.49h0c-.43-.11-.86-.19-1.3-.26h-.06c-.27,0-.82-.06-.82-.06a21,21,0,0,1-1.88,1.12,12.3,12.3,0,0,1-2.14.79,16.83,16.83,0,0,1-2.39.46c-.41,0-.82.09-1.23.11s-.82,0-1.22,0A15.7,15.7,0,0,1,84.48,77a30.75,30.75,0,0,1-5.21-2.15h-.06a3,3,0,0,0-.42,0l-.41.06A14.15,14.15,0,0,0,71,78.3a16.12,16.12,0,0,0-4.09,5.56A17.4,17.4,0,0,0,65.4,91c0,5.27.46,9.73.46,9.73v.07c5.39,3.64,13.55,5.2,21.77,5.2h.64c1.19,0,2.38,0,3.56-.1l.46,0c1.37-.09,2.73-.23,4-.41l.32,0c.67-.09,1.33-.2,2-.32h0c1.11-.21,2.19-.46,3.23-.74h0a33,33,0,0,0,4.24-1.46l.24-.1c.61-.27,1.2-.55,1.77-.85l.26-.15c.57-.31,1.13-.64,1.65-1v-.07s0-.28.07-.78c.13-1.5.38-5,.38-9C110.48,90.59,110.46,90.17,110.43,89.75Z" style="fill: #f3af00"/>
      <path d="M88.27,108.7h-.64c-9.6,0-17.87-2-23.27-5.67a2.69,2.69,0,0,1-1.17-2.14c-.08-.8-.47-5-.47-9.87A20.9,20.9,0,0,1,63,87.56a19.92,19.92,0,0,1,1.47-4.8,18.8,18.8,0,0,1,2.55-4.16,18.06,18.06,0,0,1,2.22-2.32,16.91,16.91,0,0,1,8.74-4l.44-.06a3.53,3.53,0,0,1,2,.24,27,27,0,0,0,4.57,1.92,14,14,0,0,0,3.84.27c.35,0,.7-.05,1.06-.1a14.93,14.93,0,0,0,2-.38,10.22,10.22,0,0,0,1.68-.61c.33-.17,1.13-.67,1.56-1a2.58,2.58,0,0,1,1.62-.44s.68,0,1,.08l.18,0a14.34,14.34,0,0,1,1.48.29h0a18,18,0,0,1,1.74.55l.17.06.57.24.13.06.69.31c.34.17.67.34,1,.53l.44.27.09.06.68.44.53.38.22.16.26.22c.3.25.58.48.85.73a2,2,0,0,1,.19.16l.31.31.16.16.33.34c.25.27.5.55.74.84l.33.41c.25.32.49.65.72,1l.27.42.12.18c.08.12.16.24.23.36s.1.18.15.27c.15.26.32.57.48.89l.18.33.1.24c.12.25.22.47.31.69l.31.76.24.67.27.87,0,.13c0,.16.1.33.14.49.1.4.19.8.26,1.22l.07.3v0a.68.68,0,0,1,0,.15c.09.54.16,1.11.21,1.69a.22.22,0,0,0,0,.08c0,.48.05,1,.05,1.46,0,4.13-.27,7.8-.38,9.18,0,.43-.06.7-.07.79a2.79,2.79,0,0,1-1.17,2c-.55.37-1.16.74-1.86,1.13l-.3.16c-.62.33-1.28.65-2,.94l-.19.08a35.92,35.92,0,0,1-4.65,1.61c-1.12.3-2.27.57-3.44.79h-.07c-.66.12-1.34.23-2,.33l-.32,0c-1.39.19-2.82.34-4.26.43l-.49,0C90.72,108.66,89.47,108.7,88.27,108.7ZM68.42,99.26c4.52,2.61,11.42,4.09,19.21,4.09h.64c1.1,0,2.25,0,3.41-.1l.42,0c1.33-.09,2.63-.22,3.88-.39l.29,0c.63-.1,1.26-.19,1.87-.31h0c1-.19,2-.42,3-.68a31.1,31.1,0,0,0,3.89-1.34l.2-.09c.57-.24,1.1-.5,1.6-.76l.23-.13.39-.22c.12-1.57.32-4.73.32-8.23,0-.34,0-.68,0-1,0,0,0-.07,0-.1,0-.45-.09-.89-.16-1.32,0,0,0-.07,0-.11l0-.2c0-.31-.12-.61-.19-.9,0-.1,0-.2-.08-.29l-.05-.16c-.06-.21-.12-.43-.19-.64l-.18-.49c-.07-.19-.14-.37-.22-.55s-.15-.34-.23-.51l-.07-.16c-.06-.11-.1-.19-.15-.27s-.22-.43-.34-.65l-.38-.61c0-.09-.11-.17-.17-.26s-.34-.47-.51-.7l-.24-.29c-.17-.2-.34-.41-.53-.6l-.19-.2-.35-.36-.14-.11c-.21-.19-.4-.35-.6-.51l-.21-.18-.12-.09-.38-.27c-.14-.1-.3-.21-.47-.31l-.1-.06-.26-.16c-.23-.14-.46-.25-.69-.37l-.47-.21-.16-.07-.22-.1-.14,0a11.14,11.14,0,0,0-1.27-.4l0,0c-.27-.06-.54-.12-.82-.16-.44.27-1,.58-1.38.78a14.68,14.68,0,0,1-2.62,1,17.86,17.86,0,0,1-2.75.53c-.47.06-.93.1-1.4.13a19.15,19.15,0,0,1-5.3-.38,27.78,27.78,0,0,1-5.15-2h0a11.47,11.47,0,0,0-5.94,2.77A12.93,12.93,0,0,0,71.21,82a14.08,14.08,0,0,0-1.83,3,14.35,14.35,0,0,0-1.08,3.52A15.4,15.4,0,0,0,68.07,91C68.07,94.48,68.28,97.61,68.42,99.26Z" style="fill: #fff"/>
    </g>
    <g>
      <path d="M85.48,78.21a12.52,12.52,0,1,0-9.84-9.85A12.53,12.53,0,0,0,85.48,78.21Z" style="fill: #f3af00"/>
      <path d="M87.89,81.11A15.92,15.92,0,0,1,85,80.84h0a15.15,15.15,0,0,1-12-12A15.23,15.23,0,0,1,90.89,51a15.13,15.13,0,0,1,12,12,15.2,15.2,0,0,1-15,18.14Zm0-25a9.86,9.86,0,0,0-2,19.52h0A9.86,9.86,0,1,0,89.9,56.25,10.19,10.19,0,0,0,87.93,56.06Z" style="fill: #fff"/>
    </g>
  </g>
</svg>
