<svg xmlns="http://www.w3.org/2000/svg" width="90.27" height="90.27" viewBox="0 0 90.27 90.27">
  <g>
    <g>
      <path d="M0,45.13A45.14,45.14,0,0,0,45.13,90.27V0A45.14,45.14,0,0,0,0,45.13Z" style="fill: #2cd7b3"/>
      <path d="M90.27,45.13A45.14,45.14,0,0,0,45.13,0V90.27A45.14,45.14,0,0,0,90.27,45.13Z" style="fill: #c7d5d8"/>
      <path d="M69.41,27.69a4.16,4.16,0,0,0-5.87.48L40.24,55.62,26.48,42a4.16,4.16,0,0,0-5.87,5.9l17,16.85.13.11.11.12.24.16a2.83,2.83,0,0,0,.28.2c.13.08.27.15.41.22a2.36,2.36,0,0,0,.28.12,2.88,2.88,0,0,0,.5.15,2,2,0,0,0,.23.06,3.84,3.84,0,0,0,.76.08h0a3.72,3.72,0,0,0,.74-.08h.08a4.87,4.87,0,0,0,.68-.2l.11,0a5.62,5.62,0,0,0,.64-.34l.09-.06a3.79,3.79,0,0,0,.58-.48l0,0,0,0,.18-.19,26.22-30.9A4.14,4.14,0,0,0,69.41,27.69Z" style="fill: #fff"/>
    </g>
    <path d="M69.89,27.69a4.16,4.16,0,0,0-5.87.48L40.71,55.62,27,42a4.16,4.16,0,1,0-5.87,5.9L38,64.7l.13.11.11.12a2,2,0,0,0,.24.16l.27.2.42.22.27.12a3.51,3.51,0,0,0,.5.15l.24.06a3.82,3.82,0,0,0,.75.08h0a3.63,3.63,0,0,0,.73-.08h.09a5.31,5.31,0,0,0,.68-.2l.11,0a4.77,4.77,0,0,0,.63-.34l.1-.06a5.09,5.09,0,0,0,.58-.48l0,0a.1.1,0,0,1,0,0l.18-.19,26.22-30.9A4.15,4.15,0,0,0,69.89,27.69Z" style="fill: #fff"/>
  </g>
</svg>
