<svg xmlns="http://www.w3.org/2000/svg" xmlns:xlink="http://www.w3.org/1999/xlink" width="135.25224" height="135.25224" viewBox="0 0 135.25224 135.25224">
  <defs>
    <clipPath id="clip-path">
      <path d="M-3482.89769,816.56324q7.78461,0,9.2536,8.42094a3.73172,3.73172,0,0,1-3.03482,4.31726,3.7414,3.7414,0,0,1-.64121.05544h-11.15513a3.7315,3.7315,0,0,1-3.73148-3.73148,3.7285,3.7285,0,0,1,.05544-.64122Q-3490.6823,816.56318-3482.89769,816.56324Z" style="fill: none;clip-rule: evenodd"/>
    </clipPath>
    <clipPath id="clip-path-2">
      <ellipse cx="-3482.89737" cy="810.16642" rx="4.26455" ry="5.33068" style="fill: none"/>
    </clipPath>
    <clipPath id="clip-path-3">
      <path d="M-6063.94083,738.751q11.91886,0,14.168,12.89314a5.71355,5.71355,0,0,1-4.64655,6.61006,5.7285,5.7285,0,0,1-.98176.08488h-17.0794a5.71321,5.71321,0,0,1-5.71319-5.71319,5.70828,5.70828,0,0,1,.08488-.98175Q-6075.85968,738.75084-6063.94083,738.751Z" style="fill: none;clip-rule: evenodd"/>
    </clipPath>
    <clipPath id="clip-path-4">
      <ellipse cx="-6063.94083" cy="728.9569" rx="6.52936" ry="8.1617" style="fill: none"/>
    </clipPath>
    <clipPath id="clip-path-5">
      <path d="M-2914.43921,545.59827q7.70267,0,9.1562,8.33231a3.69244,3.69244,0,0,1-3.00287,4.27182,3.7024,3.7024,0,0,1-.63447.05485h-11.03772a3.69222,3.69222,0,0,1-3.6922-3.6922,3.68939,3.68939,0,0,1,.05485-.63447Q-2922.14187,545.59822-2914.43921,545.59827Z" style="fill: none;clip-rule: evenodd"/>
    </clipPath>
    <clipPath id="clip-path-6">
      <ellipse cx="-2914.4389" cy="538.02253" rx="4.21966" ry="5.27458" style="fill: none"/>
    </clipPath>
    <clipPath id="clip-path-7">
      <path d="M-2916.89506,793.90435q8.58894,0,10.20973,9.291a4.11729,4.11729,0,0,1-3.34839,4.76333,4.12869,4.12869,0,0,1-.70748.06117h-12.30773a4.11706,4.11706,0,0,1-4.117-4.117,4.11356,4.11356,0,0,1,.06117-.70747Q-2925.484,793.90429-2916.89506,793.90435Z" style="fill: none;clip-rule: evenodd"/>
    </clipPath>
    <clipPath id="clip-path-8">
      <ellipse cx="-2916.89471" cy="785.45693" rx="4.70518" ry="5.88147" style="fill: none"/>
    </clipPath>
    <clipPath id="clip-path-9">
      <path d="M-2754.11344,547.25438q10.68055,0,12.696,11.55362a5.11994,5.11994,0,0,1-4.1638,5.92332,5.1325,5.1325,0,0,1-.87976.07607h-15.305a5.11965,5.11965,0,0,1-5.11963-5.11963,5.11547,5.11547,0,0,1,.07606-.87976Q-2764.794,547.25428-2754.11344,547.25438Z" style="fill: #595959;clip-rule: evenodd"/>
    </clipPath>
    <clipPath id="clip-path-10">
      <ellipse cx="-2754.113" cy="536.7498" rx="5.851" ry="7.31376" style="fill: #595959"/>
    </clipPath>
    <clipPath id="clip-path-11">
      <path d="M-2755.83289,795.06369q10.68057,0,12.69605,11.55363a5.12,5.12,0,0,1-4.16381,5.92332,5.13341,5.13341,0,0,1-.87976.07606h-15.305a5.11965,5.11965,0,0,1-5.11963-5.11963,5.11528,5.11528,0,0,1,.07607-.87975Q-2766.51345,795.0636-2755.83289,795.06369Z" style="fill: #595959;clip-rule: evenodd"/>
    </clipPath>
    <clipPath id="clip-path-12">
      <ellipse cx="-2755.83245" cy="784.55911" rx="5.851" ry="7.31376" style="fill: #595959"/>
    </clipPath>
    <clipPath id="clip-path-13">
      <path d="M-2869.68222,1192.576h-40.74318l20.373,15.84426Zm3.18658-4.283a4.99791,4.99791,0,0,1,4.99688,4.99688l-.07538,14.99064h-4.20766v-13.30886l-22.95565,17.85472a2.14138,2.14138,0,0,1-2.36137.17706l-.26847-.17706-22.95565-17.85472v34.01023a.71386.71386,0,0,0,.5502.694l.16364.01987,26.41209-.01987v4.25446l-26.41209.04845a4.99791,4.99791,0,0,1-4.99688-4.99688v-35.692a4.99791,4.99791,0,0,1,4.99688-4.99688Z" style="fill: none;clip-rule: evenodd"/>
    </clipPath>
    <clipPath id="clip-path-14">
      <path d="M-2873.45271,1225.98355q-2.3981,0-2.39823-2.94075a4.3018,4.3018,0,0,1,.96907-2.96969,3.4425,3.4425,0,0,1,2.71175-1.08784,7.59286,7.59286,0,0,1,1.60327.15406l-.18125,3.08088a5.599,5.599,0,0,1-.7947,2.87836A2.226,2.226,0,0,1-2873.45271,1225.98355Zm.33461,7.9467a16.76758,16.76758,0,0,0,6.62246-1.268v-2.67516a21.54,21.54,0,0,1-3.48555.95365,17.86273,17.86273,0,0,1-3.24853.32834,8.07279,8.07279,0,0,1-5.96029-2.05578,7.99927,7.99927,0,0,1-2.05638-5.90521,10.9683,10.9683,0,0,1,1.1084-5.03941,7.73013,7.73013,0,0,1,3.1857-3.3409,9.90227,9.90227,0,0,1,4.8938-1.1565,8.09418,8.09418,0,0,1,3.86878.90519,6.35129,6.35129,0,0,1,2.628,2.62985,8.185,8.185,0,0,1,.9343,3.96621,9.20858,9.20858,0,0,1-.52963,3.40921q-.52989,1.30185-1.42228,1.30185-1.05965,0-1.0596-1.93866l.32067-6.81564a14.5513,14.5513,0,0,0-2.37715-.55106,16.77761,16.77761,0,0,0-2.642-.23145,6.74081,6.74081,0,0,0-4.87986,1.7989,6.28242,6.28242,0,0,0-1.86825,4.74,5.63329,5.63329,0,0,0,1.42228,4.06589,5.13781,5.13781,0,0,0,3.88987,1.48485,4.78045,4.78045,0,0,0,3.83393-1.79889h.22325a2.82539,2.82539,0,0,0,1.14326,1.3022,3.373,3.373,0,0,0,1.82634.49669,4.19965,4.19965,0,0,0,2.71881-.94807,6.09778,6.09778,0,0,0,1.81231-2.61556,10.14021,10.14021,0,0,0,.64134-3.67167,10.65922,10.65922,0,0,0-1.31065-5.34265,8.90553,8.90553,0,0,0-3.72248-3.5692,11.69563,11.69563,0,0,0-5.47919-1.2534,12.738,12.738,0,0,0-6.43424,1.596,10.98134,10.98134,0,0,0-4.30822,4.40608,12.9775,12.9775,0,0,0-1.51273,6.25307,10.12881,10.12881,0,0,0,2.96272,7.75221Q-2878.41631,1233.93147-2873.1181,1233.93025Z" style="fill: none"/>
    </clipPath>
    <clipPath id="clip-path-15">
      <path d="M-2006.03491,1351.20048q25.38294,0,30.17284,27.45783a12.16784,12.16784,0,0,1-9.89551,14.0771,12.19958,12.19958,0,0,1-2.09079.18077h-36.37309a12.16714,12.16714,0,0,1-12.16708-12.16708,12.15655,12.15655,0,0,1,.18078-2.09079Q-2031.41787,1351.20027-2006.03491,1351.20048Z" style="fill: #595959;clip-rule: evenodd"/>
    </clipPath>
    <clipPath id="clip-path-16">
      <ellipse cx="-2006.03387" cy="1326.23577" rx="13.90523" ry="17.38154" style="fill: #595959"/>
    </clipPath>
  </defs>
  <g>
    <g>
      <path d="M-2754.11344,547.25438q10.68055,0,12.696,11.55362a5.11994,5.11994,0,0,1-4.1638,5.92332,5.1325,5.1325,0,0,1-.87976.07607h-15.305a5.11965,5.11965,0,0,1-5.11963-5.11963,5.11547,5.11547,0,0,1,.07606-.87976Q-2764.794,547.25428-2754.11344,547.25438Z" style="fill: #595959;fill-rule: evenodd"/>
      <g style="clip-path: url(#clip-path-9)">
        <rect x="-5419.24611" y="-2088.62327" width="11020.36747" height="5365.37137" style="fill: #595959"/>
      </g>
    </g>
    <g>
      <ellipse cx="-2754.113" cy="536.7498" rx="5.851" ry="7.31376" style="fill: #595959"/>
      <g style="clip-path: url(#clip-path-10)">
        <rect x="-5419.24567" y="-2090.35134" width="11020.36747" height="5365.37137" style="fill: #595959"/>
      </g>
    </g>
  </g>
  <g>
    <g>
      <path d="M-2755.83289,795.06369q10.68057,0,12.69605,11.55363a5.12,5.12,0,0,1-4.16381,5.92332,5.13341,5.13341,0,0,1-.87976.07606h-15.305a5.11965,5.11965,0,0,1-5.11963-5.11963,5.11528,5.11528,0,0,1,.07607-.87975Q-2766.51345,795.0636-2755.83289,795.06369Z" style="fill: #595959;fill-rule: evenodd"/>
      <g style="clip-path: url(#clip-path-11)">
        <rect x="-5420.96556" y="-1840.81396" width="11020.36747" height="5365.37137" style="fill: #595959"/>
      </g>
    </g>
    <g>
      <ellipse cx="-2755.83245" cy="784.55911" rx="5.851" ry="7.31376" style="fill: #595959"/>
      <g style="clip-path: url(#clip-path-12)">
        <rect x="-5420.96512" y="-1842.54203" width="11020.36747" height="5365.37137" style="fill: #595959"/>
      </g>
    </g>
  </g>
  <g>
    <g>
      <path d="M-2006.03491,1351.20048q25.38294,0,30.17284,27.45783a12.16784,12.16784,0,0,1-9.89551,14.0771,12.19958,12.19958,0,0,1-2.09079.18077h-36.37309a12.16714,12.16714,0,0,1-12.16708-12.16708,12.15655,12.15655,0,0,1,.18078-2.09079Q-2031.41787,1351.20027-2006.03491,1351.20048Z" style="fill: #595959;fill-rule: evenodd"/>
      <g style="clip-path: url(#clip-path-15)">
        <rect x="-8339.86937" y="-4913.1078" width="26190.50975" height="12751.10032" style="fill: #595959"/>
      </g>
    </g>
    <g>
      <ellipse cx="-2006.03387" cy="1326.23577" rx="13.90523" ry="17.38154" style="fill: #595959"/>
      <g style="clip-path: url(#clip-path-16)">
        <rect x="-8339.86833" y="-4917.21466" width="26190.50975" height="12751.10032" style="fill: #595959"/>
      </g>
    </g>
  </g>
  <g>
    <path d="M29.73509,70.83284a31.50509,31.50509,0,0,0-4.15918,6.79989,33.35673,33.35673,0,0,0-2.44016,7.96219,34.38385,34.38385,0,0,0-.51082,5.77369c0,7.82935.47761,14.91965.78105,18.64485,10.24021,5.90912,25.8784,9.26056,43.51658,9.26056h1.45563c2.47337,0,5.07469-.07553,7.72745-.22595l.96662-.06186c3.00405-.19273,5.942-.489,8.76049-.88295l.66579-.097c1.41135-.2038,2.79178-.42454,4.15462-.67914.03093-.00651.06414-.01367.09735-.02018,2.29854-.43106,4.57038-.95133,6.75626-1.54191.03517-.00847.06837-.01758.10158-.026a68.80687,68.80687,0,0,0,8.81128-3.02456l.4558-.19469q1.94465-.84975,3.61906-1.74116l.51342-.2852q.45759-.252.87612-.491c.27869-3.57478.74328-10.723.74328-18.65592-.00228-.75663-.03549-1.52172-.09084-2.281-.01107-.0879-.01986-.181-.02669-.24548-.08172-1.05029-.19893-2.03938-.35618-2.97312-.01074-.06837-.02409-.16148-.03516-.2546-.04656-.20967-.08205-.38026-.113-.55086-.11492-.60557-.25427-1.2808-.42226-1.94171-.06447-.2546-.13284-.48055-.19925-.70584l-.09312-.31646c-.13706-.47989-.27413-.95783-.43333-1.42666-.13707-.41412-.2699-.76118-.40046-1.11085-.16832-.44212-.33175-.86016-.50886-1.27168-.17028-.40306-.33632-.78333-.51115-1.15708l-.46883-.92918c-.27868-.54892-.5463-1.051-.82955-1.54-.07749-.13023-.168-.30278-.25883-.47533l-.60166-.92072c-.113-.17907-.22562-.36008-.3451-.53524-.39167-.5704-.78333-1.09913-1.18606-1.61679-.15465-.19469-.32948-.40957-.50855-.62184-.407-.49357-.80546-.95328-1.22122-1.39606-.1439-.155-.28975-.29627-.43366-.43822l-.81848-.83151a3.30134,3.30134,0,0,1-.36269-.30994c-.38711-.34966-.8364-.72733-1.28992-1.09457-.14813-.11981-.30083-.25265-.449-.38548l-.33632-.24288c-.24548-.18362-.52189-.38091-.80514-.57756-.35845-.25-.71463-.47989-1.075-.70584l-.24809-.155c-.19469-.12372-.38938-.24744-.59059-.36464-.50887-.29432-1.022-.55738-1.53735-.812-.34966-.17255-.71919-.334-1.09066-.49812l-.37376-.16539c-.155-.069-.30994-.13935-.46915-.20381-.10613-.03516-.21-.071-.31417-.10809a25.4051,25.4051,0,0,0-2.89564-.92918c-.02442-.00456-.05112-.01107-.07553-.01824-.407-.09832-.82565-.17125-1.24173-.25a34.60037,34.60037,0,0,1-22.09494,7.929,35.24163,35.24163,0,0,1-6.59022-.62184,33.90231,33.90231,0,0,1-15.29374-7.25309,26.26111,26.26111,0,0,0-12.31931,6.07A29.68394,29.68394,0,0,0,29.73509,70.83284Z" style="fill: #89a5ab"/>
    <path d="M88.94559,33.39871a21.7514,21.7514,0,0,0-42.64183,8.61173A21.53865,21.53865,0,0,0,63.30414,59.02521a21.6648,21.6648,0,0,0,19.67861-5.95382c.19066-.19065.36834-.38921.5511-.58494A21.67941,21.67941,0,0,0,88.94559,33.39871Z" style="fill: #89a5ab"/>
  </g>
</svg>
