<svg xmlns="http://www.w3.org/2000/svg" width="113.15" height="108.7" viewBox="0 0 113.15 108.7"><circle cx="45.13" cy="45.13" r="45.13" style="fill:#c7d5d8"/><path d="M69.89,27.69a4.16,4.16,0,0,0-5.87.48L40.71,55.62,27,42a4.16,4.16,0,1,0-5.87,5.9L38,64.7l.13.11.11.12a2,2,0,0,0,.24.16l.27.2.42.22.27.12a3.51,3.51,0,0,0,.5.15l.24.06a3.82,3.82,0,0,0,.75.08h0a3.63,3.63,0,0,0,.73-.08h.09a5.31,5.31,0,0,0,.68-.2l.11,0a4.77,4.77,0,0,0,.63-.34l.1-.06a5.09,5.09,0,0,0,.58-.48l0,0a.1.1,0,0,1,0,0l.18-.19,26.22-30.9A4.15,4.15,0,0,0,69.89,27.69Z" style="fill:#fff"/><path d="M110.43,89.75a.17.17,0,0,1,0-.07,15.22,15.22,0,0,0-.19-1.53.28.28,0,0,0,0-.09h0l-.06-.28c-.06-.36-.14-.71-.23-1.06,0-.18-.1-.35-.15-.53s-.14-.5-.23-.75a5.71,5.71,0,0,0-.21-.58c-.08-.22-.17-.44-.26-.66s-.17-.39-.26-.58l-.09-.22c0-.1-.11-.2-.17-.3-.13-.27-.27-.53-.42-.79,0-.06-.07-.14-.11-.2l-.26-.4c-.09-.15-.18-.29-.28-.43s-.4-.57-.62-.84-.18-.23-.28-.34a8.8,8.8,0,0,0-.64-.73l-.34-.35-.32-.33-.18-.15c-.23-.21-.47-.41-.71-.6l-.24-.21L104,77.6c-.15-.11-.29-.22-.45-.32s-.38-.26-.58-.39l-.45-.28-.83-.44-.59-.26c-.18-.08-.36-.17-.55-.24l-.11,0a14.11,14.11,0,0,0-1.56-.49h0c-.43-.11-.86-.19-1.3-.26h-.06c-.27,0-.82-.06-.82-.06a21,21,0,0,1-1.88,1.12,12.3,12.3,0,0,1-2.14.79,16.83,16.83,0,0,1-2.39.46c-.41,0-.82.09-1.23.11s-.82,0-1.22,0A15.7,15.7,0,0,1,84.48,77a30.75,30.75,0,0,1-5.21-2.15h-.06a3,3,0,0,0-.42,0l-.41.06A14.15,14.15,0,0,0,71,78.3a16.12,16.12,0,0,0-4.09,5.56A17.4,17.4,0,0,0,65.4,91c0,5.27.46,9.73.46,9.73v.07c5.39,3.64,13.55,5.2,21.77,5.2h.64c1.19,0,2.38,0,3.56-.1l.46,0c1.37-.09,2.73-.23,4-.41l.32,0c.67-.09,1.33-.2,2-.32h0c1.11-.21,2.19-.46,3.23-.74h0a33,33,0,0,0,4.24-1.46l.24-.1c.61-.27,1.2-.55,1.77-.85l.26-.15c.57-.31,1.13-.64,1.65-1v-.07s0-.28.07-.78c.13-1.5.38-5,.38-9C110.48,90.59,110.46,90.17,110.43,89.75Z" style="fill:#f8456e"/><path d="M88.27,108.7h-.64c-9.6,0-17.86-2-23.26-5.67a2.67,2.67,0,0,1-1.18-2.14c-.08-.8-.47-5-.47-9.87a20.48,20.48,0,0,1,1.78-8.26A19.39,19.39,0,0,1,67,78.6a18.84,18.84,0,0,1,2.23-2.32,16.91,16.91,0,0,1,8.74-4l.44-.06a3.52,3.52,0,0,1,2,.24,27,27,0,0,0,4.57,1.92,13.66,13.66,0,0,0,3.84.27c.34,0,.7-.05,1-.1a13.41,13.41,0,0,0,2-.38,10.22,10.22,0,0,0,1.68-.61c.33-.17,1.13-.67,1.57-1a2.57,2.57,0,0,1,1.61-.44s.68,0,1,.08l.17,0q.78.12,1.5.3h0a16.38,16.38,0,0,1,1.74.55l.23.08.49.21.14.06.7.32c.34.17.67.34,1,.53.15.08.29.17.44.27l.09.06c.24.14.47.29.7.45l.51.37.2.14.28.24q.45.36.84.72l.22.19a4,4,0,0,1,.29.29l.16.16.33.34c.25.27.5.56.74.85a4.16,4.16,0,0,1,.32.39c.26.33.5.66.73,1l.27.41.12.19c.08.12.16.24.23.36l.14.25c.17.29.33.6.49.91l.19.35.1.22.31.7c.1.24.2.49.29.74s.18.48.25.7.18.56.27.85l0,.12c0,.17.1.33.14.5.1.39.18.8.26,1.21l.07.31v0h0v0s0,.06,0,.09v0a16.14,16.14,0,0,1,.2,1.63.53.53,0,0,1,0,.12v0c0,.48.05,1,.05,1.46,0,4.13-.27,7.8-.38,9.18,0,.43-.06.7-.07.79a2.79,2.79,0,0,1-1.17,2c-.54.37-1.15.73-1.86,1.13l-.29.16c-.62.33-1.28.64-2,.94l-.19.08a34.81,34.81,0,0,1-4.61,1.6h-.05c-1.1.3-2.24.56-3.4.78h0c-.69.13-1.38.24-2.08.34l-.34,0c-1.37.19-2.8.34-4.24.43l-.47,0C90.71,108.66,89.46,108.7,88.27,108.7ZM68.42,99.26c4.52,2.61,11.42,4.09,19.21,4.09h.64c1.09,0,2.24,0,3.41-.1l.43,0c1.32-.09,2.62-.22,3.86-.39l.3,0q.93-.14,1.83-.3h.05c1-.19,2-.42,3-.68h0a31.1,31.1,0,0,0,3.89-1.34l.2-.09c.58-.25,1.11-.5,1.6-.76l.23-.13.38-.22c.13-1.58.33-4.73.33-8.23,0-.34,0-.67,0-1,0,0,0-.08,0-.11a12.69,12.69,0,0,0-.16-1.31s0-.07,0-.11,0-.17,0-.25c0-.26-.11-.56-.19-.85,0-.12-.06-.22-.09-.31l0-.14c-.06-.22-.12-.43-.19-.63s-.12-.34-.18-.49-.14-.38-.22-.57-.15-.34-.23-.51l-.2-.41c-.13-.24-.24-.46-.37-.68l-.11-.21-.27-.4-.15-.24c-.17-.25-.35-.48-.52-.71l-.23-.28a8.09,8.09,0,0,0-.54-.61l-.19-.2-.36-.36-.16-.14c-.17-.16-.37-.32-.57-.48l-.2-.17-.15-.11-.35-.26-.48-.31-.11-.07-.26-.16c-.22-.13-.45-.24-.68-.36l-.48-.22-.16-.07-.21-.09-.14,0a12.32,12.32,0,0,0-1.28-.41h0a7.63,7.63,0,0,0-.83-.17c-.44.27-1,.58-1.38.78a14.86,14.86,0,0,1-2.61,1,18.22,18.22,0,0,1-2.76.53c-.46.06-.93.1-1.39.13a19.2,19.2,0,0,1-5.31-.38,28.17,28.17,0,0,1-5.16-2h0a11.49,11.49,0,0,0-5.91,2.77A12.27,12.27,0,0,0,71.21,82a13.69,13.69,0,0,0-1.83,3,14.35,14.35,0,0,0-1.08,3.52A15.6,15.6,0,0,0,68.07,91C68.07,94.48,68.28,97.61,68.42,99.26ZM78.79,74.84l.09.71,0,0Z" style="fill:#fff"/><path d="M85.48,78.21a12.52,12.52,0,1,0-9.84-9.85A12.53,12.53,0,0,0,85.48,78.21Z" style="fill:#f8456e"/><path d="M87.89,81.12A15.1,15.1,0,0,1,85,80.84h0a15.15,15.15,0,0,1-12-12A15.23,15.23,0,0,1,90.89,51a15.15,15.15,0,0,1,12,12,15.21,15.21,0,0,1-15,18.15ZM86,75.58a9.85,9.85,0,1,0-7.71-7.71A9.81,9.81,0,0,0,86,75.58Z" style="fill:#fff"/></svg>